<svg width="101" height="94" viewBox="0 0 101 94" fill="none" xmlns="http://www.w3.org/2000/svg">
<path d="M96.4056 53.3121H91.1244V12.4531C91.1244 9.04688 88.3588 6.26558 84.9369 6.26558H75.0307V1.74997C75.0307 1.15622 74.5463 0.671875 73.9526 0.671875C73.3589 0.671875 72.8745 1.15625 72.8745 1.74997V6.26558H46.8905V1.74997C46.8905 1.15622 46.4061 0.671875 45.8124 0.671875C45.2187 0.671875 44.7343 1.15625 44.7343 1.74997V6.26558H18.7343V1.74997C18.7343 1.15622 18.2499 0.671875 17.6562 0.671875C17.0625 0.671875 16.5781 1.15625 16.5781 1.74997V6.26558H6.6875C3.2656 6.26558 0.5 9.04678 0.5 12.4531V83.2191C0.5 86.6097 3.2656 89.3753 6.6875 89.3753H60.3755C60.4536 91.5628 62.2505 93.3284 64.4536 93.3284H96.4066C98.6566 93.3284 100.5 91.5003 100.5 89.2346V57.4066C100.5 55.1566 98.6566 53.3128 96.4066 53.3128L96.4056 53.3121ZM6.6866 8.40608H16.5928V10.7499C14.2959 11.2499 12.5772 13.2811 12.5772 15.7187C12.5772 18.5156 14.8584 20.7968 17.6553 20.7968C20.4522 20.7968 22.7334 18.5156 22.7334 15.7187C22.7334 13.2812 21.0146 11.2499 18.7178 10.7499V8.40608H44.7178V10.7499C42.4209 11.2499 40.7022 13.2811 40.7022 15.7187C40.7022 18.5156 42.9834 20.7968 45.7803 20.7968C48.5772 20.7968 50.8584 18.5156 50.8584 15.7187C50.8584 13.2812 49.1396 11.2499 46.8428 10.7499V8.40608H72.8588V10.7499C70.5619 11.2499 68.8432 13.2811 68.8432 15.7187C68.8432 18.5156 71.1244 20.7968 73.9213 20.7968C76.7182 20.7968 78.9994 18.5156 78.9994 15.7187C78.9994 13.2812 77.2806 11.2499 74.9838 10.7499V8.40608H84.89C87.1244 8.40608 88.9369 10.2186 88.9369 12.453V23.031H2.6399V12.453C2.6399 10.2186 4.4522 8.40608 6.6866 8.40608ZM17.6706 12.7811C19.2956 12.7811 20.6081 14.0936 20.6081 15.7186C20.6081 17.3436 19.2956 18.6561 17.6706 18.6561C16.0456 18.6561 14.7331 17.3436 14.7331 15.7186C14.7175 14.0936 16.0456 12.7811 17.6706 12.7811ZM45.8116 12.7811C47.4366 12.7811 48.7491 14.0936 48.7491 15.7186C48.7491 17.3436 47.4366 18.6561 45.8116 18.6561C44.1866 18.6561 42.8741 17.3436 42.8741 15.7186C42.8741 14.0936 44.1866 12.7811 45.8116 12.7811ZM73.9676 12.7811C75.5926 12.7811 76.9051 14.0936 76.9051 15.7186C76.9051 17.3436 75.5926 18.6561 73.9676 18.6561C72.3426 18.6561 71.0301 17.3436 71.0301 15.7186C71.0145 14.0936 72.3426 12.7811 73.9676 12.7811ZM2.6396 25.1721H88.9836V53.3131H84.5305V31.3751C84.5305 30.3126 83.6555 29.4532 82.593 29.4532H8.734C7.6559 29.4532 6.7965 30.3126 6.7965 31.3751V81.3131C6.7965 82.3756 7.6715 83.235 8.734 83.235H60.375V87.235H6.687C4.4526 87.235 2.6401 85.4381 2.6401 83.2194L2.6396 25.1721ZM82.3896 42.0941H65.8896V31.6561L82.3896 31.6717V42.0941ZM44.7486 68.4531H27.7956V57.4061H44.7336V68.4531H44.7486ZM27.7956 55.2651V44.2341H44.7336V55.2651H27.7956ZM46.8896 68.4531V57.4061H60.3586V68.4531H46.8896ZM63.7486 42.0941H46.8896V31.6411L63.7486 31.6567V42.0941ZM44.7486 42.0941H27.7956V31.6101L44.7336 31.6257V42.0947L44.7486 42.0941ZM25.6546 81.0321L8.9206 81.0164L9.02998 31.6104L25.655 31.6261L25.6546 81.0321ZM27.7952 70.5941H44.7332V81.0631L27.7952 81.0318V70.5941ZM46.8892 70.5941H60.3582V81.0941L46.8892 81.0785V70.5941ZM60.9832 55.2661H46.8892V44.2351H63.7482V53.3757C62.5763 53.5944 61.5769 54.2974 60.9832 55.2661ZM65.8894 44.2351H82.3894V53.3132H65.8894V44.2351ZM62.4988 88.4071C62.4988 88.3758 62.5144 88.3446 62.5144 88.2977C62.5144 88.2508 62.4988 88.2352 62.4988 88.1883V57.4073C62.4988 56.3292 63.3738 55.4542 64.4519 55.4542H83.4519H83.4675H83.4832H90.0457H90.0613H90.0769H96.405C97.4831 55.4542 98.3581 56.3292 98.3581 57.4073V89.2193C98.3581 90.2974 97.4831 91.1724 96.405 91.1724H64.452C63.3739 91.1724 62.4989 90.2974 62.4989 89.2193L62.4988 88.4071Z" fill="black"/>
<path d="M30.4833 38.9218L32.4677 40.9062C32.6708 41.1093 32.9365 41.2187 33.2177 41.2187C33.499 41.2187 33.7646 41.1093 33.9677 40.9062L39.7958 35.0781C39.9989 34.875 40.1083 34.6094 40.1083 34.3281C40.1083 34.0469 39.9989 33.7656 39.7958 33.5781C39.5927 33.375 39.3271 33.2656 39.0458 33.2656C38.7646 33.2656 38.4989 33.375 38.2958 33.5781L33.2177 38.6562L31.9989 37.4218C31.7958 37.2187 31.5302 37.1093 31.2489 37.1093C30.9677 37.1093 30.702 37.2187 30.4989 37.4218C30.2958 37.6249 30.1864 37.8906 30.1864 38.1718C30.1552 38.4531 30.2802 38.7187 30.4833 38.9218Z" fill="black"/>
<path d="M50.438 38.9218L52.4224 40.9062C52.6255 41.1093 52.8912 41.2187 53.1724 41.2187C53.4537 41.2187 53.7193 41.1093 53.9224 40.9062L59.7505 35.0781C59.9536 34.875 60.063 34.6094 60.063 34.3281C60.063 34.0469 59.9536 33.7656 59.7505 33.5781C59.5474 33.375 59.2818 33.2656 59.0005 33.2656C58.7193 33.2656 58.4536 33.375 58.2505 33.5781L53.1724 38.6562L51.9536 37.4218C51.7505 37.2187 51.4849 37.1093 51.2036 37.1093C50.9224 37.1093 50.6567 37.2187 50.4536 37.4218C50.2505 37.6249 50.1411 37.8906 50.1411 38.1718C50.1255 38.4531 50.2349 38.7187 50.438 38.9218Z" fill="black"/>
<path d="M70.3902 38.9218L72.3746 40.9062C72.5777 41.1093 72.8433 41.2187 73.1246 41.2187C73.4058 41.2187 73.6714 41.1093 73.8746 40.9062L79.7027 35.0781C79.9058 34.875 80.0152 34.6094 80.0152 34.3281C80.0152 34.0469 79.9058 33.7656 79.7027 33.5781C79.4995 33.375 79.2339 33.2656 78.9527 33.2656C78.6714 33.2656 78.4058 33.375 78.2027 33.5781L73.1246 38.6562L71.9058 37.4218C71.7026 37.2187 71.437 37.1093 71.1558 37.1093C70.8745 37.1093 70.6089 37.2187 70.4058 37.4218C70.2026 37.6249 70.0933 37.8906 70.0933 38.1718C70.0776 38.4531 70.187 38.7187 70.3902 38.9218Z" fill="black"/>
<path d="M67.5781 78.2343H75.5V86.1562C75.5 86.75 75.9844 87.2343 76.5781 87.2343H84.2812C84.8749 87.2343 85.3593 86.7499 85.3593 86.1562V78.2343H93.2812C93.8749 78.2343 94.3593 77.7499 94.3593 77.1562V69.4531C94.3593 68.8593 93.8749 68.375 93.2812 68.375H85.3437V60.4531C85.3437 59.8594 84.8593 59.375 84.2656 59.375H76.5625C75.9687 59.375 75.4844 59.8594 75.4844 60.4531V68.375H67.5625C66.9687 68.375 66.4844 68.8594 66.4844 69.4531V77.1562C66.5156 77.75 66.9843 78.2343 67.5781 78.2343ZM77.6561 69.4687V61.5312H83.2186V69.4531C83.2186 70.0468 83.703 70.5312 84.2967 70.5312H92.2186V76.0937H84.2967C83.7029 76.0937 83.2186 76.5781 83.2186 77.1718V85.0937H77.6561V77.1718C77.6561 76.5781 77.1717 76.0937 76.578 76.0937H68.6561V70.5312H76.578C77.1717 70.5312 77.6561 70.0625 77.6561 69.4687Z" fill="black"/>
</svg>
