<svg width="72" height="81" viewBox="0 0 72 81" fill="none" xmlns="http://www.w3.org/2000/svg">
<path d="M71.1482 65.9529L71.1092 50.9529L69.8865 49.867C69.8123 49.7967 62.0115 42.6561 62.0115 23.41C62.0154 16.2342 55.4646 0.5 35.9995 0.5C16.5305 0.5 9.97948 16.234 9.97948 23.414C9.97948 42.66 2.18258 49.801 2.13968 49.84L0.84668 50.9298V65.9528H20.3627C20.9955 74.07 27.726 80.4998 35.9997 80.4998C44.2809 80.4998 51.0157 74.0584 51.6367 65.9528L71.1482 65.9529ZM8.12124 54.0899C10.9259 50.8985 17.254 41.6639 17.254 23.4139C17.254 23.2577 18.6524 7.7729 36 7.7729C53.3476 7.7729 54.742 23.2569 54.742 23.4139C54.742 41.6639 61.0701 50.8979 63.8748 54.0899V58.6837H8.12084L8.12124 54.0899ZM36.0002 73.2269C31.7385 73.2269 28.2307 70.055 27.6369 65.9535H44.3639C43.7702 70.0551 40.2619 73.2269 36.0002 73.2269Z" fill="black"/>
</svg>
