<svg width="86" height="86" viewBox="0 0 86 86" fill="none" xmlns="http://www.w3.org/2000/svg">
<path d="M83.3487 3.91166C81.2807 1.60066 78.0577 0.222656 74.7267 0.222656H11.2427C5.30368 0.222656 0.47168 4.57766 0.47168 9.92966C0.47168 10.0297 0.477679 10.1267 0.488679 10.2247L8.02968 78.1527C8.51968 82.5707 12.1767 85.7777 16.7257 85.7777H69.2447C73.9877 85.7777 77.8587 82.3127 77.9547 78.0237L85.4807 10.2247C85.7307 7.97066 84.9737 5.72666 83.3487 3.91166ZM80.1657 9.63666L72.6247 77.5627C72.6137 77.6607 72.6077 77.7597 72.6077 77.8577C72.6077 79.2527 71.0667 80.4297 69.2437 80.4297H16.7257C14.6207 80.4297 13.4967 78.9437 13.3437 77.5627L5.82168 9.80466C5.90868 7.49566 8.35568 5.56866 11.2437 5.56866H74.7267C76.5347 5.56866 78.3107 6.30066 79.3647 7.47666C79.9787 8.16366 80.2487 8.89066 80.1657 9.63666ZM45.6737 50.8127V69.3887C45.6737 70.8657 44.4767 72.0627 42.9997 72.0627C41.5227 72.0627 40.3257 70.8657 40.3257 69.3887V50.8127C40.3257 49.3337 41.5227 48.1387 42.9997 48.1387C44.4767 48.1387 45.6737 49.3337 45.6737 50.8127ZM49.7367 12.8847H36.2637C27.4177 12.8847 20.2217 20.0797 20.2217 28.9257V34.0177C20.2217 35.4947 21.4187 36.6917 22.8957 36.6917H63.1057C64.5817 36.6917 65.7787 35.4947 65.7787 34.0177V28.9257C65.7777 20.0797 58.5817 12.8847 49.7367 12.8847ZM60.4317 31.3437H45.6737V24.0037C45.6737 22.5267 44.4767 21.3297 42.9997 21.3297C41.5227 21.3297 40.3257 22.5267 40.3257 24.0037V31.3437H25.5677V28.9257C25.5677 23.0297 30.3657 18.2307 36.2627 18.2307H49.7367C55.6327 18.2307 60.4307 23.0297 60.4307 28.9257L60.4317 31.3437Z" fill="black"/>
</svg>
