<svg width="101" height="118" viewBox="0 0 101 118" fill="none" xmlns="http://www.w3.org/2000/svg">
<path d="M69.7222 21.4665C71.0941 23.4554 72.2096 25.4443 73.0979 27.4432C73.4088 27.4086 73.7247 27.3938 74.0307 27.3938C75.7482 27.3938 77.3521 27.8676 78.7291 28.6917C77.7272 22.5621 74.7858 17.0594 70.5662 12.8395C65.3003 7.56865 58.0257 4.29663 50.0305 4.29663C42.0353 4.29663 34.7658 7.56865 29.4948 12.8395C25.2307 17.0987 22.2745 22.6756 21.3022 28.8838C22.6643 27.9905 24.2831 27.4526 26.0203 27.3983C27.0123 23.7708 28.4387 20.2421 30.3782 17.4438C30.9605 16.5999 32.1104 16.3778 32.9643 16.9306C38.018 20.2175 43.9995 22.1916 49.9915 22.848C56.1309 23.5192 62.2704 22.8134 67.428 20.7258C68.2867 20.3803 69.2491 20.7159 69.7278 21.4661L69.7222 21.4665ZM83.1751 93.9897C84.5421 94.3352 85.7612 95.0459 86.7285 96.0132C88.1301 97.41 88.9938 99.3396 88.9938 101.472C88.9938 103.604 88.1302 105.533 86.7334 106.93C85.3367 108.327 83.4071 109.19 81.275 109.19C79.1479 109.19 77.2134 108.327 75.8167 106.93L75.7081 106.812C74.3805 105.425 73.5613 103.544 73.5613 101.472C73.5613 99.3494 74.4249 97.4197 75.8217 96.023C76.7989 95.0508 78.0277 94.3352 79.3997 93.9897L79.4737 75.8178C78.309 75.1762 76.9814 74.6185 75.417 74.1151L69.7168 83.9856L73.9167 89.3107C74.4349 89.9671 74.4447 90.8604 74.0104 91.5217L58.9087 114.214H96.3579C94.2852 99.5912 91.9409 90.9936 89.2413 85.5798C87.43 81.9524 85.4362 79.7908 83.2351 78.1572L83.1709 93.9942L83.1751 93.9897ZM84.0585 98.6931C83.3528 97.9824 82.3658 97.5432 81.28 97.5432C80.1942 97.5432 79.2072 97.9824 78.5015 98.6881C77.7957 99.3939 77.3565 100.381 77.3565 101.467C77.3565 102.513 77.7661 103.465 78.4225 104.166L78.5015 104.24C79.2121 104.951 80.1942 105.39 81.28 105.39C82.3658 105.39 83.3478 104.951 84.0585 104.24C84.7692 103.53 85.2084 102.548 85.2084 101.462C85.2084 100.376 84.7692 99.3939 84.0585 98.6832V98.6931ZM13.6667 107.527C14.713 107.527 15.5619 108.376 15.5619 109.422C15.5619 110.469 14.713 111.317 13.6667 111.317H10.9918C9.94555 111.317 9.09668 110.469 9.09668 109.422C9.09668 109.274 9.11642 109.126 9.14603 108.988L10.9376 98.6684C11.2781 96.6992 12.2504 94.883 13.7309 93.59C14.7771 92.677 16.0653 92.0206 17.5507 91.7591V78.1975C15.3693 79.8262 13.3952 81.9828 11.5988 85.5807C8.89928 90.9947 6.555 99.5921 4.48222 114.215H41.1216L26.0388 91.5276C25.6045 90.8614 25.6193 89.968 26.1375 89.3166L30.3374 83.9915L24.7654 74.3431C23.4724 74.7923 22.3471 75.2808 21.3404 75.8385V91.9472C22.4952 92.2779 23.512 92.8504 24.3657 93.5956C25.8463 94.8886 26.8185 96.7048 27.159 98.6739L28.9752 109.107C29.1479 110.139 28.4569 111.116 27.4254 111.288L27.1096 111.313L24.4347 111.318C23.3884 111.318 22.5395 110.469 22.5395 109.423C22.5395 108.377 23.3884 107.528 24.4347 107.528H24.8591L23.4279 99.3106C23.2305 98.1805 22.6925 97.149 21.8782 96.4384C20.3284 95.0812 17.7622 95.0861 16.2125 96.4384C15.4031 97.149 14.8602 98.1756 14.6627 99.3106L13.2365 107.528L13.6667 107.527ZM73.2651 52.4444C75.8166 53.3821 78.0572 54.9909 79.7648 57.044C81.9708 59.6943 83.2984 63.0947 83.2886 66.7763L83.259 73.6265C86.7779 75.7437 89.8772 78.3594 92.636 83.8869C95.6268 89.8832 98.1832 99.3841 100.384 115.705L100.424 116.105C100.424 117.151 99.575 118 98.5287 118H2.31121L2.05951 117.975C1.02311 117.837 0.302589 116.885 0.440808 115.848C2.64688 99.4387 5.20822 89.8935 8.20886 83.8822C10.9578 78.3744 14.0473 75.7587 17.5513 73.6464V66.7716C17.5513 63.2231 18.7801 59.9413 20.8283 57.3453C22.4175 55.3267 24.515 53.7129 26.9234 52.7012C25.7882 50.4656 24.964 48.0423 24.5199 45.4908C22.6841 45.1305 21.0455 44.2175 19.7919 42.9393C18.1782 41.2959 17.1763 39.0504 17.1615 36.5777V36.5284C17.1615 25.9917 19.0419 17.927 26.8198 10.1544C32.7716 4.19755 40.9941 0.496094 50.0302 0.496094C59.0662 0.496094 67.2835 4.19263 73.2406 10.1494C80.2881 17.1871 83.1753 26.7521 83.1753 36.5285C83.1753 38.9468 82.2178 41.2614 80.5003 42.9839C79.1776 44.3115 77.4552 45.2293 75.5305 45.5452C75.1012 47.9783 74.3263 50.288 73.2701 52.4348L73.2651 52.4444ZM79.4934 71.608L79.5131 66.7715C79.523 64.0028 78.5261 61.4464 76.8678 59.4574C75.4316 57.73 73.5019 56.4272 71.3058 55.7707C70.4273 57.0341 69.4353 58.2186 68.3496 59.3044C66.7999 60.8541 65.0528 62.2113 63.1478 63.3266L62.6741 67.6352C67.1799 68.3162 70.7827 68.9628 73.7635 69.7079C75.9745 70.2607 77.85 70.8776 79.4983 71.6031L79.4934 71.608ZM28.9071 55.9832C26.8836 56.7235 25.1217 58.0215 23.8089 59.6896C22.269 61.644 21.3462 64.1067 21.3462 66.7767V71.6132C22.9946 70.8828 24.875 70.2708 27.0909 69.7131C29.8991 69.0074 33.26 68.3954 37.4007 67.7587L36.9121 63.3318C35.0071 62.2115 33.2601 60.8593 31.7103 59.3096C30.6838 58.283 29.7461 57.1726 28.9021 55.9881L28.9071 55.9832ZM28.5122 73.2618L34.252 83.2015C34.6715 83.9269 34.553 84.8202 34.025 85.4125L29.9533 90.5747L41.8966 108.539L37.82 71.5248C34.1038 72.0972 31.0587 72.65 28.5171 73.262L28.5122 73.2618ZM40.9343 65.2469L41.7584 72.7387C42.5185 74.2587 43.6684 75.5073 45.0454 76.3858C46.4963 77.3136 48.2187 77.8367 50.03 77.8367C51.8412 77.8367 53.5636 77.3136 55.0146 76.3858C56.3865 75.5122 57.5316 74.2636 58.2966 72.7534L59.1257 65.2469C56.2928 66.308 53.228 66.8904 50.03 66.8904C46.827 66.8904 43.7622 66.308 40.9343 65.2469ZM42.4691 79.1989L46.3235 114.21H53.7117L57.5809 79.204C57.4032 79.3274 57.2256 79.4507 57.043 79.5643C54.98 80.8771 52.5568 81.6173 50.0299 81.6173C47.4982 81.6173 45.0749 80.877 43.0169 79.5643C42.8343 79.4458 42.6468 79.3224 42.4691 79.1941L42.4691 79.1989ZM71.6416 73.0941C69.0604 72.5068 65.9808 71.9639 62.2547 71.4013L62.0375 73.3705C62.0326 73.4396 62.0277 73.5136 62.0129 73.5827L58.1485 108.539L70.1117 90.5695L66.04 85.4072C65.507 84.815 65.3886 83.9217 65.813 83.1962L71.6465 73.0938L71.6416 73.0941ZM74.504 31.1988C75.496 34.4561 75.9303 37.7133 75.9303 40.9855L75.9253 41.5382C76.6459 41.2668 77.2874 40.8473 77.8205 40.3143C78.3979 39.7418 78.847 39.0311 79.1135 38.2366V34.8263C78.8618 34.0712 78.4472 33.3902 77.9093 32.8276L77.8204 32.7486C76.9568 31.885 75.7921 31.3124 74.504 31.1988ZM67.3923 24.7732C61.9833 26.6683 55.7698 27.2754 49.5906 26.6041C43.6634 25.9527 37.7361 24.1218 32.5394 21.1013C29.4549 26.5695 27.9201 34.8954 27.9201 40.9851C27.9201 47.09 30.3975 52.6224 34.3951 56.62C38.3928 60.6176 43.9252 63.095 50.03 63.095C56.1349 63.095 61.6673 60.6176 65.6649 56.62C69.6625 52.6224 72.14 47.09 72.14 40.9851C72.14 34.9937 70.541 29.7475 67.3874 24.7728L67.3923 24.7732ZM24.1402 41.4302L24.1352 40.9811C24.1352 38.2667 24.4363 34.8367 25.1173 31.308C24.1155 31.5351 23.2222 32.0434 22.5214 32.7442C20.4437 34.8219 20.4289 38.1976 22.4868 40.2853C22.9557 40.764 23.5134 41.1539 24.1352 41.4303L24.1402 41.4302Z" fill="black"/>
</svg>
