<svg width="101" height="114" viewBox="0 0 101 114" fill="none" xmlns="http://www.w3.org/2000/svg">
<path fill-rule="evenodd" clip-rule="evenodd" d="M64.9606 15.1515V45.2414C64.9606 48.5633 65.6556 50.6629 67.4348 53.3539L98.6627 97.4402C103.389 104.114 97.6376 113.556 89.5447 113.556H11.1934C5.32836 113.556 0.370117 108.455 0.370117 102.768H0.379973C0.379973 100.934 0.902408 99.0956 2.07549 97.4396L13.6036 81.1657C13.7268 80.7616 13.9782 80.4117 14.3084 80.1702L33.377 53.2548C35.102 50.82 35.7772 48.2374 35.7772 45.2457V15.1508C33.6924 15.1508 31.7603 15.0226 30.1387 13.2779L30.1338 13.2828C28.9805 12.1295 28.2658 10.5375 28.2658 8.78294L28.2707 1.95178C28.2658 0.872401 29.1431 0 30.2176 0H70.5187C71.5931 0 72.4705 0.872376 72.4705 1.95178V8.78786C72.4705 12.2921 69.602 15.1557 66.1026 15.1557L64.9606 15.1515ZM39.6767 39.2128H46.4141V43.1113H39.6767C39.6767 47.8674 39.5288 51.2781 36.547 55.4872L19.3356 79.7857H81.4067L64.1903 55.4973C61.9921 52.3972 61.0606 49.0063 61.0606 45.2407V15.1509H39.6754V20.7449H46.4129V24.6434H39.6754V29.9812H46.4129V33.8797H39.6754L39.6767 39.2128ZM84.168 83.6839H16.5769L5.24584 99.6777C4.57061 100.634 4.26504 101.698 4.26504 102.763H4.2749C4.2749 106.272 7.40956 109.653 11.1997 109.653H89.5509C94.6767 109.653 98.2944 103.616 95.4998 99.6726L84.168 83.6839ZM68.5742 3.89934H32.1669V8.78364C32.1669 9.45887 32.4478 10.0798 32.8914 10.5284L32.8864 10.5333C33.9313 11.5732 35.8091 11.2578 37.7263 11.2578H66.1002C67.4704 11.2578 68.5695 10.1341 68.5695 8.78859L68.5742 3.89934Z" fill="black"/>
</svg>
