<svg width="101" height="140" viewBox="0 0 101 140" fill="none" xmlns="http://www.w3.org/2000/svg">
<path d="M50.7884 81.7951C46.9916 81.7951 43.223 80.5159 39.887 78.0923C39.8713 78.0829 39.8588 78.0704 39.8431 78.0609C32.1052 72.4049 27.2988 61.3091 27.2988 49.0846C27.2988 47.6267 27.3647 46.1845 27.4995 44.7955C27.5685 44.0682 28.0701 43.4536 28.7724 43.2404L50.2648 36.7065C50.6066 36.603 50.9734 36.603 51.3151 36.7065L72.8075 43.2404C73.5098 43.4536 74.0115 44.0682 74.0805 44.7987C74.2121 46.1939 74.278 47.6361 74.278 49.0878C74.278 61.3122 69.4716 72.4112 61.7337 78.0641C61.7212 78.0735 61.7055 78.086 61.6929 78.0954C58.3601 80.5159 54.5915 81.7951 50.7884 81.7951ZM42.0378 75.1922C44.7812 77.1768 47.7252 78.1832 50.7884 78.1832C53.8547 78.1832 56.7956 77.1768 59.5359 75.1953C59.5484 75.1859 59.5578 75.1796 59.5703 75.1702C66.4147 70.1914 70.6661 60.1961 70.6661 49.0878C70.6661 48.1628 70.6379 47.2411 70.5783 46.3381L50.7884 40.3215L30.9985 46.3381C30.9389 47.2379 30.9107 48.1597 30.9107 49.0878C30.9107 60.1992 35.1621 70.1914 42.0065 75.1702C42.0159 75.1765 42.0284 75.1859 42.0378 75.1922Z" fill="black"/>
<path d="M40.9497 78.4384H31.3871C26.1104 78.4384 21.1598 76.0995 17.8082 72.0268C14.4534 67.9509 13.1147 62.6397 14.1336 57.4602L20.8588 23.712C21.0532 22.7338 22.0063 22.1004 22.9814 22.2948C23.9596 22.4892 24.5961 23.4392 24.3985 24.4174L17.6765 58.1625C16.8676 62.276 17.9336 66.493 20.5986 69.7349C23.2636 72.9736 27.1952 74.8297 31.3902 74.8297H40.9529C41.9499 74.8297 42.7588 75.6386 42.7588 76.6356C42.7588 77.6327 41.9468 78.4384 40.9497 78.4384Z" fill="black"/>
<path d="M69.8479 78.4377H60.6301C59.6331 78.4377 58.8242 77.6287 58.8242 76.6317C58.8242 75.6347 59.6331 74.8258 60.6301 74.8258H69.8479C74.0429 74.8258 77.9746 72.9697 80.6395 69.731C83.3045 66.4922 84.3705 62.2721 83.5616 58.1555L76.8333 24.4166C76.6389 23.4384 77.2722 22.4884 78.2505 22.2909C79.2287 22.0965 80.1787 22.7299 80.373 23.7081L87.1014 57.4532C88.1203 62.6389 86.7816 67.9501 83.4268 72.026C80.0752 76.1019 75.1246 78.4377 69.8479 78.4377Z" fill="black"/>
<path d="M25.1702 33.1229C24.9413 33.1229 24.7124 33.079 24.4961 32.9943C24.0133 32.7999 23.637 32.408 23.4646 31.9158L15.9995 10.6366C15.7016 9.78693 16.0747 8.84635 16.8742 8.43562C38.4231 -2.69778 61.11 -2.70405 84.3017 8.41054C85.1326 8.80872 85.5308 9.76812 85.2266 10.6366L77.7584 31.9158C77.5891 32.4018 77.2191 32.7905 76.7457 32.9849C76.2722 33.1825 75.7361 33.1668 75.2721 32.9442C58.445 24.8677 41.8625 24.8614 25.9854 32.9254C25.7314 33.057 25.4524 33.1229 25.1702 33.1229ZM50.2556 23.253C58.4199 23.253 66.6877 25.1154 75.0119 28.8432L81.2793 10.9815C60.1757 1.30284 39.5518 1.2903 19.9343 10.9376L26.2017 28.8056C34.0838 25.1028 42.1196 23.253 50.2556 23.253Z" fill="black"/>
<path d="M50.6155 19.9107C49.6185 19.9107 48.8096 19.1018 48.8096 18.1048V9.16921C48.8096 8.17218 49.6185 7.36328 50.6155 7.36328C51.6125 7.36328 52.4214 8.17218 52.4214 9.16921V18.1048C52.4214 19.1018 51.6125 19.9107 50.6155 19.9107Z" fill="black"/>
<path d="M55.0831 15.4419H46.1507C45.1536 15.4419 44.3447 14.633 44.3447 13.636C44.3447 12.639 45.1536 11.8301 46.1507 11.8301H55.0831C56.0801 11.8301 56.889 12.639 56.889 13.636C56.889 14.633 56.0801 15.4419 55.0831 15.4419Z" fill="black"/>
<path d="M98.981 139.106H2.59597C1.59894 139.106 0.790039 138.297 0.790039 137.3V119.824C0.790039 113.265 2.84679 107.01 6.74081 101.734C10.6348 96.4569 16.0056 92.6444 22.2699 90.7131L36.9963 86.3268L39.1785 76.2469C39.3886 75.2718 40.3511 74.651 41.3262 74.8642C42.3013 75.0743 42.9189 76.0368 42.7088 77.0119L40.3009 88.1359C40.163 88.7786 39.6833 89.2959 39.05 89.4841L23.3171 94.1713C12.0112 97.6609 4.40189 107.973 4.40189 119.824V135.494H97.1782V119.824C97.1782 107.973 89.5688 97.6609 78.2442 94.165L62.527 89.4841C61.8968 89.2959 61.4171 88.7786 61.276 88.1359L58.8681 77.0119C58.658 76.0368 59.2757 75.0743 60.2508 74.8642C61.229 74.6541 62.1884 75.2718 62.3984 76.2469L64.5806 86.3268L79.2914 90.7068C85.5745 92.6444 90.9452 96.4569 94.8393 101.734C98.7333 107.01 100.79 113.265 100.79 119.824V137.3C100.787 138.297 99.9811 139.106 98.981 139.106Z" fill="black"/>
<path d="M82.7366 139.105C81.7396 139.105 80.9307 138.296 80.9307 137.299V125.284C80.9307 124.287 81.7396 123.479 82.7366 123.479C83.7336 123.479 84.5425 124.287 84.5425 125.284V137.299C84.5425 138.296 83.7336 139.105 82.7366 139.105Z" fill="black"/>
<path d="M18.8391 139.105C17.8421 139.105 17.0332 138.296 17.0332 137.299V125.284C17.0332 124.287 17.8421 123.479 18.8391 123.479C19.8361 123.479 20.6451 124.287 20.6451 125.284V137.299C20.6451 138.296 19.8361 139.105 18.8391 139.105Z" fill="black"/>
<path d="M50.788 109.573C50.5466 109.573 50.302 109.522 50.0732 109.425C49.2768 109.083 30.5466 100.907 29.9007 89.8892C29.8412 88.8922 30.603 88.0394 31.5969 87.9798C32.5908 87.9203 33.4467 88.6821 33.5063 89.676C33.9139 96.6426 45.5019 103.368 50.7849 105.785C56.0678 103.365 67.6559 96.6426 68.0634 89.676C68.123 88.6821 68.9696 87.9203 69.9728 87.9798C70.9699 88.0394 71.7286 88.8922 71.669 89.8892C71.0232 100.903 52.293 109.08 51.4966 109.425C51.274 109.526 51.0294 109.573 50.788 109.573Z" fill="black"/>
<path d="M73.9993 118.354C73.0023 118.354 72.1934 117.545 72.1934 116.548V105.624C72.1934 104.627 73.0023 103.818 73.9993 103.818C74.9963 103.818 75.8052 104.627 75.8052 105.624V116.548C75.8052 117.545 74.9963 118.354 73.9993 118.354Z" fill="black"/>
<path d="M79.46 112.889H68.2639C67.2669 112.889 66.458 112.08 66.458 111.083C66.458 110.086 67.2669 109.277 68.2639 109.277H79.46C80.4571 109.277 81.266 110.086 81.266 111.083C81.266 112.08 80.4571 112.889 79.46 112.889Z" fill="black"/>
<path d="M50.7883 139.106C49.7913 139.106 48.9824 138.297 48.9824 137.3V107.81C48.9824 106.813 49.7913 106.004 50.7883 106.004C51.7854 106.004 52.5943 106.813 52.5943 107.81V137.3C52.5943 138.297 51.7854 139.106 50.7883 139.106Z" fill="black"/>
</svg>
