<svg width="100" height="100" viewBox="0 0 100 100" fill="none" xmlns="http://www.w3.org/2000/svg">
<path d="M49.9999 42.1071C38.6284 42.1071 29.3213 32.8001 29.3213 21.4286C29.3213 10.0571 38.6284 0.75 49.9999 0.75C61.3714 0.75 70.6784 10.0571 70.6784 21.4286C70.6784 32.8001 61.3714 42.1071 49.9999 42.1071ZM49.9999 6.39286C41.7285 6.39286 34.9641 13.1572 34.9641 21.4286C34.9641 29.6999 41.7285 36.4643 49.9999 36.4643C58.2712 36.4643 65.0356 29.6999 65.0356 21.4286C65.0356 13.1572 58.2712 6.39286 49.9999 6.39286Z" fill="black" stroke="white" stroke-width="1.5"/>
<path d="M6.39286 92.8577V93.6077H7.14286H92.8571H93.6071V92.8577V85.7148C93.6071 61.7292 73.9856 42.1077 50 42.1077C26.0144 42.1077 6.39286 61.7292 6.39286 85.7148V92.8577ZM96.4286 99.2506H3.57143C2.67044 99.2506 1.97789 98.9535 1.51247 98.4881C1.04706 98.0227 0.75 97.3301 0.75 96.4291V85.7148C0.75 58.6291 22.9142 36.4648 50 36.4648C77.0858 36.4648 99.25 58.6291 99.25 85.7148V96.4291C99.25 97.3301 98.9529 98.0227 98.4875 98.4881C98.0221 98.9535 97.3296 99.2506 96.4286 99.2506Z" fill="black" stroke="white" stroke-width="1.5"/>
<path d="M28.5714 78.5711C26.4286 78.5711 25 77.1426 25 74.9997V60.714C25 58.5711 26.4286 57.1426 28.5714 57.1426C30.7143 57.1426 32.1429 58.5711 32.1429 60.714V74.9997C32.1429 77.1426 30.7143 78.5711 28.5714 78.5711Z" fill="black"/>
<path d="M35.7146 71.428H21.4289C19.286 71.428 17.8574 69.9994 17.8574 67.8566C17.8574 65.7137 19.286 64.2852 21.4289 64.2852H35.7146C37.8574 64.2852 39.286 65.7137 39.286 67.8566C39.286 69.9994 37.8574 71.428 35.7146 71.428Z" fill="black"/>
</svg>
