<svg width="36" height="37" viewBox="0 0 36 37" fill="none" xmlns="http://www.w3.org/2000/svg">
<path d="M18 0.5C13.2261 0.5 8.64773 2.39642 5.27208 5.77208C1.89642 9.14773 0 13.7261 0 18.5C0.1 30.27 9.05 36.5 18 36.5C26.95 36.5 35.91 30.26 36 18.5C36 13.7261 34.1036 9.14773 30.7279 5.77208C27.3523 2.39642 22.7739 0.5 18 0.5ZM8.9 31.64C9.44286 29.6423 10.628 27.8787 12.2726 26.6214C13.9172 25.364 15.9298 24.6828 18 24.6828C20.0702 24.6828 22.0828 25.364 23.7274 26.6214C25.372 27.8787 26.5571 29.6423 27.1 31.64C24.4305 33.5014 21.2544 34.4994 18 34.4994C14.7456 34.4994 11.5695 33.5014 8.9 31.64ZM12.4 17.09C12.4 15.9824 12.7284 14.8997 13.3438 13.9788C13.9591 13.0579 14.8337 12.3401 15.857 11.9163C16.8802 11.4924 18.0062 11.3815 19.0925 11.5976C20.1788 11.8137 21.1766 12.347 21.9598 13.1302C22.743 13.9134 23.2763 14.9112 23.4924 15.9975C23.7085 17.0838 23.5976 18.2098 23.1737 19.233C22.7499 20.2563 22.0321 21.1309 21.1112 21.7462C20.1903 22.3616 19.1076 22.69 18 22.69C16.5148 22.69 15.0904 22.1 14.0402 21.0498C12.99 19.9996 12.4 18.5752 12.4 17.09ZM28.77 30.3C28.2107 28.7578 27.3279 27.3531 26.1809 26.1803C25.034 25.0074 23.6493 24.0936 22.12 23.5C23.4989 22.6104 24.5528 21.2985 25.1243 19.7603C25.6957 18.222 25.754 16.5402 25.2903 14.9661C24.8266 13.3921 23.8659 12.0103 22.5519 11.0275C21.2378 10.0447 19.6409 9.51364 18 9.51364C16.3591 9.51364 14.7622 10.0447 13.4481 11.0275C12.1341 12.0103 11.1734 13.3921 10.7097 14.9661C10.246 16.5402 10.3043 18.222 10.8757 19.7603C11.4472 21.2985 12.5011 22.6104 13.88 23.5C12.3507 24.0936 10.966 25.0074 9.81906 26.1803C8.67208 27.3531 7.78931 28.7578 7.23 30.3C4.8424 28.1268 3.16811 25.2821 2.42711 22.1398C1.68612 18.9974 1.91309 15.7044 3.07821 12.6934C4.24333 9.68246 6.29209 7.0944 8.95527 5.26933C11.6185 3.44425 14.7715 2.46754 18 2.46754C21.2285 2.46754 24.3815 3.44425 27.0447 5.26933C29.7079 7.0944 31.7567 9.68246 32.9218 12.6934C34.0869 15.7044 34.3139 18.9974 33.5729 22.1398C32.8319 25.2821 31.1576 28.1268 28.77 30.3Z" fill="black"/>
</svg>
