<svg width="100" height="219" viewBox="0 0 100 219" fill="none" xmlns="http://www.w3.org/2000/svg">
<path d="M4.50009 31.8066C2.0001 31.8407 -0.0112976 33.8748 4.77603e-05 36.3748C0.0341391 38.852 2.02276 40.8408 4.50009 40.8748H50.0008C52.4781 40.8407 54.4668 38.8521 54.5009 36.3748C54.5122 33.8748 52.5009 31.8407 50.0008 31.8066H4.50009Z" fill="black"/>
<path d="M4.50004 0.000172007C2.00005 0.0342634 0 2.06835 0 4.56828V213.611V213.6C0 216.1 1.99999 218.145 4.50004 218.168H95.4317C96.6476 218.168 97.8067 217.691 98.659 216.838C99.5227 215.975 100 214.816 100 213.6V4.55683V4.5682C100 3.3523 99.5227 2.19321 98.659 1.32953C97.8068 0.477263 96.6477 0 95.4317 0L4.50004 0.000172007ZM9.06816 9.05698H90.8741V209.102H9.06816V9.05698Z" fill="black"/>
<path d="M4.50009 68.1816C2.0001 68.2157 -0.0112976 70.2498 4.77603e-05 72.7497C0.0341391 75.2156 2.02276 77.2157 4.50009 77.2384H31.818C34.2839 77.2157 36.284 75.2157 36.3067 72.7497C36.318 70.2497 34.3067 68.2157 31.818 68.1816H4.50009Z" fill="black"/>
<path d="M4.50009 104.557C2.02284 104.579 0.034084 106.579 4.7908e-05 109.057C-0.0113149 111.557 2.00004 113.591 4.50009 113.613H50.0008C52.5008 113.591 54.5122 111.557 54.5009 109.057C54.4668 106.579 52.4782 104.579 50.0008 104.557H4.50009Z" fill="black"/>
<path d="M4.50009 140.932C2.02284 140.954 0.034084 142.954 4.7908e-05 145.42C-0.0113149 147.92 2.00004 149.966 4.50009 149.988H31.818C34.3066 149.966 36.318 147.92 36.3067 145.42C36.284 142.954 34.284 140.954 31.818 140.932H4.50009Z" fill="black"/>
<path d="M4.50009 177.238C2.0001 177.261 -0.0112975 179.295 4.7908e-05 181.795C-0.0113149 184.295 2.00004 186.329 4.50009 186.363H50.0008C52.5008 186.329 54.5122 184.295 54.5009 181.795C54.5122 179.295 52.5009 177.261 50.0008 177.238H4.50009Z" fill="black"/>
</svg>
