<svg width="101" height="98" viewBox="0 0 101 98" fill="none" xmlns="http://www.w3.org/2000/svg">
<path fill-rule="evenodd" clip-rule="evenodd" d="M100.628 47.3102V55.736L92.111 58.5027C91.6329 60.2872 91.0387 62.0386 90.3322 63.7457C89.6196 65.4505 88.8026 67.1098 87.886 68.7143L91.9554 76.7032L80.0365 88.6278L72.0534 84.5561C70.4477 85.4788 68.7837 86.2964 67.0721 87.0035C65.3644 87.7153 63.6109 88.3119 61.8234 88.7892L59.0659 97.3107H42.2119L39.4325 88.7892C35.8631 87.8207 32.4327 86.398 29.2255 84.5561L21.2424 88.6278L9.32238 76.7078L13.3918 68.7189C12.4751 67.1147 11.6585 65.4553 10.9467 63.7503C10.2293 62.0472 9.63448 60.2951 9.16675 58.5073L0.62793 55.7406V45.9418H20.6637V47.3136C20.6637 55.2637 23.8218 62.8881 29.4434 68.5097C35.0649 74.1312 42.6894 77.2894 50.6395 77.2894C58.5895 77.2894 66.214 74.1312 71.8355 68.5097C77.4571 62.8881 80.6152 55.2637 80.6152 47.3136V45.9418H100.628V47.3136V47.3102ZM50.6389 11.0948C48.0706 11.0918 45.6064 12.1091 43.7882 13.9229C41.97 15.7368 40.9469 18.1986 40.9438 20.7668C40.9407 23.3351 41.958 25.7993 43.7719 27.6175C45.5857 29.4357 48.0476 30.4589 50.6158 30.4619H50.6389C53.2071 30.4619 55.6702 29.4417 57.4862 27.6257C59.3022 25.8097 60.3224 23.3466 60.3224 20.7784C60.3224 18.2101 59.3022 15.7471 57.4862 13.9311C55.6702 12.115 53.2071 11.0948 50.6389 11.0948ZM41.8545 11.9894C40.6987 13.1427 39.7817 14.5126 39.156 16.0207C38.5303 17.5289 38.2083 19.1456 38.2083 20.7784C38.2083 22.4111 38.5303 24.0279 39.156 25.536C39.7817 27.0442 40.6987 28.4141 41.8545 29.5673C42.2407 29.9671 42.6569 30.3367 43.0995 30.6729C41.0022 31.0138 38.9923 31.7639 37.1845 32.8805V29.5293C37.171 26.6831 36.1945 23.9252 34.414 21.7045C32.6336 19.4839 30.154 17.9312 27.3787 17.2992C27.5113 17.1839 27.645 17.0548 27.7788 16.928C29.1259 15.5838 30.044 13.8701 30.4168 12.0038C30.7896 10.1376 30.6004 8.20266 29.873 6.44402C29.1457 4.68537 27.9129 3.18204 26.3309 2.1243C24.7488 1.06656 22.8884 0.501953 20.9853 0.501953C19.0822 0.501953 17.2218 1.06656 15.6397 2.1243C14.0576 3.18204 12.8249 4.68537 12.0976 6.44402C11.3702 8.20266 11.181 10.1376 11.5538 12.0038C11.9266 13.8701 12.8447 15.5838 14.1918 16.928C14.3104 17.0592 14.4366 17.1831 14.5699 17.2992C11.7945 17.931 9.31463 19.4836 7.53395 21.7042C5.75327 23.9249 4.77665 26.6829 4.76304 29.5293V35.5239C4.77392 37.2544 5.46619 38.9109 6.68987 40.1346C7.91355 41.3583 9.57008 42.0506 11.3006 42.0614H30.0694C29.5942 43.6029 29.354 45.2072 29.357 46.8202V54.8702C29.3561 55.9608 29.5701 57.0409 29.9868 58.0487C30.4035 59.0565 31.0147 59.9724 31.7856 60.7438C32.5564 61.5153 33.4717 62.1273 34.4792 62.5449C35.4867 62.9624 36.5666 63.1773 37.6572 63.1773H63.6033C65.8058 63.1722 67.9167 62.2956 69.4749 60.7391C71.0331 59.1826 71.912 57.0727 71.9196 54.8702V46.8237C71.923 45.2107 71.6832 43.6064 71.2084 42.0649H89.9541C91.6877 42.064 93.35 41.3749 94.5758 40.1491C95.8017 38.9232 96.4908 37.2609 96.4917 35.5273V29.5328C96.493 27.8872 96.1694 26.2576 95.5393 24.7375C94.9092 23.2174 93.9851 21.8367 92.82 20.6746C91.1328 18.9935 89.0054 17.8227 86.6825 17.2969C86.8229 17.1806 86.9568 17.0567 87.0836 16.9257C88.4232 15.5827 89.3347 13.8728 89.7029 12.0121C90.0712 10.1513 89.8797 8.22315 89.1527 6.47116C88.4257 4.71916 87.1957 3.22193 85.6182 2.16861C84.0407 1.11528 82.1864 0.553107 80.2896 0.553107C78.3927 0.553107 76.5384 1.11528 74.9609 2.16861C73.3834 3.22193 72.1535 4.71916 71.4264 6.47116C70.6994 8.22315 70.508 10.1513 70.8762 12.0121C71.2445 13.8728 72.156 15.5827 73.4955 16.9257C73.6293 17.0525 73.763 17.177 73.8967 17.2969C71.1213 17.9292 68.6417 19.4823 66.8614 21.7034C65.0811 23.9245 64.1051 26.6828 64.0921 29.5293V32.8805C62.2783 31.7599 60.2605 31.0096 58.1552 30.6729C58.6006 30.3313 59.0242 29.9621 59.4232 29.5673C61.7542 27.2376 63.0642 24.0773 63.0651 20.7816C63.066 17.486 61.7576 14.325 59.4279 11.994C58.2743 10.8398 56.9047 9.92415 55.3972 9.29927C53.8898 8.6744 52.274 8.35256 50.6421 8.35214C47.3465 8.35127 44.1855 9.65963 41.8545 11.9894ZM50.6389 33.2102H45.7014C42.0964 33.2248 38.6433 34.6641 36.095 37.2142C33.5468 39.7644 32.1102 43.2186 32.0983 46.8237V54.8737C32.1077 56.3455 32.6962 57.7545 33.7365 58.7957C34.7769 59.8369 36.1853 60.4266 37.6572 60.4371H63.6033C65.0795 60.4332 66.4945 59.8465 67.5403 58.8046C68.5861 57.7627 69.1781 56.3499 69.1875 54.8737V46.8237C69.1759 43.2131 67.7351 39.7541 65.1801 37.203C62.6251 34.6519 59.1638 33.2163 55.5533 33.2102H50.6389ZM66.8277 34.9982V29.5293C66.8429 26.9349 67.8814 24.4514 69.7175 22.6185C71.5537 20.7856 74.0391 19.7514 76.6335 19.7408H83.9722C86.5628 19.7572 89.0426 20.7939 90.874 22.6261C92.7054 24.4584 93.7409 26.9387 93.7561 29.5293V35.5239C93.7566 36.0213 93.6587 36.5139 93.468 36.9734C93.2772 37.4328 92.9974 37.8499 92.6448 38.2007C91.931 38.9144 90.9635 39.316 89.9541 39.3178H70.6297C70.4436 39.3176 70.2579 39.3033 70.074 39.2751C69.2963 37.7969 68.2976 36.446 67.1125 35.2691C67.0222 35.1728 66.9259 35.0823 66.8242 34.9982H66.8277ZM31.2061 39.2786C31.0222 39.3068 30.8364 39.3211 30.6504 39.3212H11.3006C10.2976 39.3148 9.33778 38.9126 8.62986 38.2021C7.92195 37.4916 7.52326 36.5303 7.52055 35.5273V29.5328C7.52572 26.9391 8.55803 24.4531 10.3916 22.6186C12.2252 20.7842 14.7107 19.7507 17.3044 19.7443H24.6431C27.2368 19.7507 29.7224 20.7842 31.5559 22.6186C33.3895 24.4531 34.4218 26.9391 34.427 29.5328V35.0017C34.3382 35.0904 34.2495 35.1815 34.1607 35.2726C32.9772 36.4515 31.9798 37.8034 31.2026 39.282L31.2061 39.2786ZM85.1573 5.28007C85.7946 5.9181 86.3001 6.67541 86.6447 7.50877C86.9894 8.34213 87.1666 9.23522 87.1661 10.137C87.1656 11.0389 86.9875 11.9318 86.6419 12.7648C86.2964 13.5978 85.7901 14.3545 85.1521 14.9919C84.5141 15.6292 83.7568 16.1346 82.9234 16.4793C82.09 16.824 81.197 17.0011 80.2951 17.0007C79.3933 17.0002 78.5004 16.8221 77.6674 16.4765C76.8344 16.131 76.0777 15.6247 75.4403 14.9867C74.4791 14.0263 73.8245 12.8023 73.5596 11.4696C73.2946 10.137 73.4311 8.75563 73.9518 7.50062C74.4725 6.2456 75.354 5.17337 76.4846 4.41976C77.6152 3.66614 78.9441 3.26504 80.3028 3.26727C81.2024 3.26776 82.0931 3.44557 82.9239 3.79055C83.7546 4.13553 84.5093 4.6409 85.1446 5.27776L85.1573 5.28007ZM25.8282 5.28007C26.9476 6.40151 27.6435 7.87636 27.7973 9.45335C27.9512 11.0303 27.5535 12.6119 26.672 13.9285C25.7905 15.2452 24.4798 16.2155 22.9631 16.6741C21.4465 17.1327 19.8177 17.0512 18.3544 16.4436C16.8911 15.8359 15.6837 14.7397 14.938 13.3417C14.1923 11.9437 13.9544 10.3303 14.2648 8.77658C14.5752 7.22281 15.4148 5.82474 16.6404 4.82058C17.8661 3.81642 19.402 3.26829 20.9865 3.26958C21.8861 3.26968 22.7768 3.44733 23.6077 3.79233C24.4385 4.13732 25.1931 4.6429 25.8282 5.28007ZM97.8923 53.7486V48.6878H83.3278C82.9736 57.1199 79.3748 65.089 73.2832 70.9302C67.1916 76.7713 59.0785 80.0325 50.6389 80.0325C42.1993 80.0325 34.0862 76.7713 27.9946 70.9302C21.903 65.089 18.3041 57.1199 17.95 48.6878H3.38428V53.7486L11.432 56.3677L11.6314 57.1021C12.0967 59.0145 12.7134 60.8868 13.4759 62.7012C14.2283 64.5216 15.1145 66.2837 16.1274 67.973L16.5274 68.6255L12.6805 76.1764L21.7761 85.2766L29.3132 81.4274L29.9806 81.8182C31.6677 82.8336 33.4293 83.72 35.2501 84.4696C37.07 85.2219 38.943 85.8384 40.8539 86.3141L41.5882 86.4963L44.1901 94.5694H57.0646L59.6895 86.5078L60.4262 86.3234C62.3376 85.8469 64.2107 85.2284 66.03 84.4731C67.849 83.7188 69.6106 82.8326 71.3006 81.8217L71.945 81.4309L79.5063 85.2778L88.6007 76.1775L84.7504 68.6313L85.1504 67.9765C86.1632 66.2871 87.0495 64.525 87.8018 62.7047C88.5648 60.8912 89.1816 59.0196 89.6463 57.1078L89.8238 56.3735L97.8923 53.7486Z" fill="black"/>
</svg>
