<svg width="101" height="135" viewBox="0 0 101 135" fill="none" xmlns="http://www.w3.org/2000/svg">
<path fill-rule="evenodd" clip-rule="evenodd" d="M98.8016 134.886H1.73901C0.927861 134.886 0.269531 134.228 0.269531 133.417V11.5847C0.269531 10.7736 0.927861 10.1152 1.73901 10.1152H38.5754C39.3865 10.1152 40.0448 10.7736 40.0448 11.5847C40.0448 12.3959 39.3865 13.0542 38.5754 13.0542H3.20765V131.948H97.3314V13.0542H61.9637C61.1526 13.0542 60.4942 12.3959 60.4942 11.5847C60.4942 10.7736 61.1526 10.1152 61.9637 10.1152H98.8C99.6112 10.1152 100.27 10.7736 100.27 11.5847V133.417C100.27 134.228 99.6127 134.886 98.8016 134.886Z" fill="black"/>
<path fill-rule="evenodd" clip-rule="evenodd" d="M89.2484 125.327H11.2947C10.4835 125.327 9.8252 124.669 9.8252 123.858V24.3093C9.8252 23.4982 10.4835 22.8398 11.2947 22.8398H23.1976C24.0087 22.8398 24.6671 23.4982 24.6671 24.3093C24.6671 25.1205 24.0087 25.7788 23.1976 25.7788H12.7642V122.394H87.7791V25.7788H77.3517C76.5405 25.7788 75.8822 25.1205 75.8822 24.3093C75.8822 23.4982 76.5405 22.8398 77.3517 22.8398H89.2545C90.0716 22.8398 90.724 23.4982 90.724 24.3093V123.858C90.724 124.669 90.0716 125.327 89.2545 125.327H89.2484Z" fill="black"/>
<path fill-rule="evenodd" clip-rule="evenodd" d="M24.0881 26.997H76.461C76.4139 24.0227 73.9864 21.6245 71.0004 21.6245H29.5429C26.5628 21.6245 24.1293 24.0287 24.0823 26.997H24.0881ZM77.9296 29.9359H22.6179C21.8068 29.9359 21.1484 29.2776 21.1484 28.4664V27.0792C21.1484 22.4474 24.9162 18.6797 29.548 18.6797H71.0054C75.6372 18.6797 79.4049 22.4474 79.4049 27.0792V28.4664C79.4049 29.2776 78.7466 29.9359 77.9354 29.9359H77.9296Z" fill="black"/>
<path fill-rule="evenodd" clip-rule="evenodd" d="M61.966 21.6182C61.1548 21.6182 60.4965 20.9599 60.4965 20.1487V7.63462L58.1394 3.20854H42.4103L40.0532 7.63462V20.1487C40.0532 20.9599 39.3949 21.6182 38.5837 21.6182C37.7726 21.6182 37.1143 20.9599 37.1143 20.1487V7.2643C37.1143 7.0233 37.173 6.78818 37.2906 6.57658L40.2354 1.04541C40.4882 0.569293 40.9878 0.269531 41.5286 0.269531H59.0213C59.5621 0.269531 60.0617 0.569308 60.3145 1.0513L63.2593 6.58246C63.3709 6.79406 63.4356 7.03506 63.4356 7.27606V20.1605C63.4356 20.9717 62.7773 21.63 61.9661 21.63L61.966 21.6182Z" fill="black"/>
<path fill-rule="evenodd" clip-rule="evenodd" d="M50.2734 9.23369C49.3329 9.23369 48.563 10.0037 48.563 10.9441C48.563 11.8905 49.333 12.6546 50.2734 12.6546C51.2138 12.6546 51.9839 11.8846 51.9839 10.9441C51.9839 9.99779 51.2138 9.23369 50.2734 9.23369ZM50.2734 15.5995C47.7107 15.5995 45.624 13.5129 45.624 10.9502C45.624 8.38742 47.7107 6.30078 50.2734 6.30078C52.8362 6.30078 54.9228 8.38742 54.9228 10.9502C54.9228 13.5129 52.8362 15.5995 50.2734 15.5995Z" fill="black"/>
<path fill-rule="evenodd" clip-rule="evenodd" d="M47.2448 57.6083H80.414V43.0428H47.2448V57.6083ZM81.8842 60.5473H45.7761C44.965 60.5473 44.3066 59.8889 44.3066 59.0778V41.573C44.3066 40.7618 44.965 40.1035 45.7761 40.1035H81.8842C82.6953 40.1035 83.3536 40.7618 83.3536 41.573V59.0778C83.3536 59.8889 82.6953 60.5473 81.8842 60.5473Z" fill="black"/>
<path fill-rule="evenodd" clip-rule="evenodd" d="M47.2448 83.4482H80.414V68.8826H47.2448V83.4482ZM81.8842 86.3871H45.7761C44.965 86.3871 44.3066 85.7288 44.3066 84.9176V67.4128C44.3066 66.6017 44.965 65.9434 45.7761 65.9434H81.8842C82.6953 65.9434 83.3536 66.6017 83.3536 67.4128V84.9176C83.3536 85.7288 82.6953 86.3871 81.8842 86.3871Z" fill="black"/>
<path fill-rule="evenodd" clip-rule="evenodd" d="M47.2448 109.288H80.414V94.7225H47.2448V109.288ZM81.8842 112.227H45.7761C44.965 112.227 44.3066 111.569 44.3066 110.757V93.2527C44.3066 92.4415 44.965 91.7832 45.7761 91.7832H81.8842C82.6953 91.7832 83.3536 92.4415 83.3536 93.2527V110.757C83.3536 111.569 82.6953 112.227 81.8842 112.227Z" fill="black"/>
<path fill-rule="evenodd" clip-rule="evenodd" d="M20.132 57.6083H34.6976V43.0428H20.132V57.6083ZM36.1666 60.5473H18.6619C17.8507 60.5473 17.1924 59.8889 17.1924 59.0778V41.573C17.1924 40.7618 17.8507 40.1035 18.6619 40.1035H36.1666C36.9778 40.1035 37.6361 40.7618 37.6361 41.573V59.0778C37.6361 59.8889 36.9778 60.5473 36.1666 60.5473Z" fill="black"/>
<path fill-rule="evenodd" clip-rule="evenodd" d="M20.132 83.4482H34.6976V68.8826H20.132V83.4482ZM36.1666 86.3871H18.6619C17.8507 86.3871 17.1924 85.7288 17.1924 84.9176V67.4128C17.1924 66.6017 17.8507 65.9434 18.6619 65.9434H36.1666C36.9778 65.9434 37.6361 66.6017 37.6361 67.4128V84.9176C37.6361 85.7288 36.9778 86.3871 36.1666 86.3871Z" fill="black"/>
<path fill-rule="evenodd" clip-rule="evenodd" d="M20.132 109.288H34.6976V94.7225H20.132V109.288ZM36.1666 112.227H18.6619C17.8507 112.227 17.1924 111.569 17.1924 110.757V93.2527C17.1924 92.4415 17.8507 91.7832 18.6619 91.7832H36.1666C36.9778 91.7832 37.6361 92.4415 37.6361 93.2527V110.757C37.6361 111.569 36.9778 112.227 36.1666 112.227Z" fill="black"/>
<path fill-rule="evenodd" clip-rule="evenodd" d="M76.0594 48.8101H51.6072C50.7901 48.8101 50.1377 48.1517 50.1377 47.3406C50.1377 46.5294 50.7901 45.8711 51.6072 45.8711H76.0594C76.8706 45.8711 77.5289 46.5294 77.5289 47.3406C77.5289 48.1517 76.8706 48.8101 76.0594 48.8101Z" fill="black"/>
<path fill-rule="evenodd" clip-rule="evenodd" d="M72.0207 54.7808H51.6072C50.7901 54.7808 50.1377 54.1224 50.1377 53.3113C50.1377 52.5001 50.7901 51.8418 51.6072 51.8418H72.0207C72.8377 51.8418 73.4901 52.5001 73.4901 53.3113C73.4901 54.1224 72.8377 54.7808 72.0207 54.7808Z" fill="black"/>
<path fill-rule="evenodd" clip-rule="evenodd" d="M76.0594 74.6499H51.6072C50.7901 74.6499 50.1377 73.9916 50.1377 73.1804C50.1377 72.3693 50.7901 71.7109 51.6072 71.7109H76.0594C76.8706 71.7109 77.5289 72.3693 77.5289 73.1804C77.5289 73.9916 76.8706 74.6499 76.0594 74.6499Z" fill="black"/>
<path fill-rule="evenodd" clip-rule="evenodd" d="M72.0207 80.6147H51.6072C50.7901 80.6147 50.1377 79.9564 50.1377 79.1453C50.1377 78.3341 50.7901 77.6758 51.6072 77.6758H72.0207C72.8377 77.6758 73.4901 78.3341 73.4901 79.1453C73.4901 79.9564 72.8377 80.6147 72.0207 80.6147Z" fill="black"/>
<path fill-rule="evenodd" clip-rule="evenodd" d="M76.0594 100.488H51.6072C50.7901 100.488 50.1377 99.8295 50.1377 99.0183C50.1377 98.2072 50.7901 97.5488 51.6072 97.5488H76.0594C76.8706 97.5488 77.5289 98.2072 77.5289 99.0183C77.5289 99.8295 76.8706 100.488 76.0594 100.488Z" fill="black"/>
<path fill-rule="evenodd" clip-rule="evenodd" d="M72.0207 106.455H51.6072C50.7901 106.455 50.1377 105.796 50.1377 104.985C50.1377 104.174 50.7901 103.516 51.6072 103.516H72.0207C72.8377 103.516 73.4901 104.174 73.4901 104.985C73.4901 105.796 72.8377 106.455 72.0207 106.455Z" fill="black"/>
<path fill-rule="evenodd" clip-rule="evenodd" d="M25.8736 54.4529C25.4856 54.4529 25.1094 54.3001 24.8332 54.0238L22.5936 51.7843C22.0235 51.2083 22.0235 50.2796 22.5936 49.7035C23.1697 49.1275 24.0984 49.1275 24.6744 49.7035L25.8735 50.9027L30.1527 46.6234C30.7229 46.0474 31.6575 46.0474 32.2335 46.6234C32.8037 47.1995 32.8037 48.1282 32.2335 48.7042L26.9139 54.0238C26.6376 54.3001 26.2674 54.4529 25.8736 54.4529Z" fill="black"/>
<path fill-rule="evenodd" clip-rule="evenodd" d="M25.8736 80.2928C25.4974 80.2928 25.1212 80.1517 24.8332 79.8637L22.5936 77.6241C22.0235 77.0481 22.0235 76.1194 22.5936 75.5492C23.1697 74.9732 24.0984 74.9732 24.6744 75.5492L25.8735 76.7483L30.1527 72.4691C30.7229 71.8931 31.6575 71.8931 32.2335 72.4691C32.8037 73.0452 32.8037 73.9739 32.2335 74.5499L26.9139 79.8695C26.6259 80.1575 26.2497 80.2986 25.8735 80.2986L25.8736 80.2928Z" fill="black"/>
</svg>
