<svg width="101" height="101" viewBox="0 0 101 101" fill="none" xmlns="http://www.w3.org/2000/svg">
<path d="M99.9996 95.6615L82.0248 37.9671C81.5915 36.5782 80.3681 35.5836 78.9202 35.4436L62.6456 33.8691C66.6137 30.3899 69.1339 25.3006 69.1339 19.6224C69.1339 9.16273 60.6254 0.654297 50.1646 0.654297C39.7072 0.654297 31.1976 9.16384 31.1976 19.6224C31.1976 25.3006 33.7178 30.3899 37.6837 33.8691L21.4091 35.4436C19.9612 35.5836 18.7378 36.5782 18.3044 37.9671L0.32861 95.6615C-0.0147491 96.7594 0.186378 97.9551 0.865318 98.8807C1.54759 99.8063 2.6299 100.354 3.77999 100.354H96.5482C97.6972 100.354 98.7806 99.8074 99.4617 98.8807C100.142 97.9551 100.343 96.7594 99.9996 95.6615ZM50.1635 7.88707C56.6351 7.88707 61.9011 13.1508 61.9011 19.6224C61.9011 26.0929 56.6362 31.3578 50.1635 31.3578C43.693 31.3578 38.4282 26.0929 38.4282 19.6224C38.4293 13.1508 43.693 7.88707 50.1635 7.88707ZM8.69369 93.1202L24.4938 42.4097L45.302 40.3973H55.0283L75.8355 42.4097L91.6334 93.1202H8.69369Z" fill="black"/>
</svg>
